
Format : MPEG-4
Format profile : Base Media / Version 2
Codec ID : mp42
File size : 306 MiB
Duration : 1h 14mn
Overall bit rate : 576 Kbps
Encoded date : UTC 2010-10-08 20:57:00
Tagged date : UTC 2010-10-08 20:57:33
Writing application : mp4creator 1.6.1d

Video
ID : 1
Format : AVC
Format/Info : Advanced Video Codec
Format profile : Baseline@L1.3
Format settings, CABAC : No
Format settings, ReFrames : 1 frame
Codec ID : avc1
Codec ID/Info : Advanced Video Coding
Duration : 1h 14mn
Bit rate mode : Variable
Bit rate : 512 Kbps
Width : 480 pixels
Height : 272 pixels
Display aspect ratio : 16:9
Original display aspect ratio : 16:9
Frame rate mode : Constant
Frame rate : 24.000 fps
Resolution : 24 bits
Colorimetry : 4:2:0
Scan type : Progressive
Bits/(Pixel*Frame) : 0.163
Stream size : 272 MiB (89%)
Encoded date : UTC 2010-10-08 20:57:00
Tagged date : UTC 2010-10-08 20:57:29

Audio
ID : 2
Format : AAC
Format/Info : Advanced Audio Codec
Format version : Version 4
Format profile : LC
Format settings, SBR : Yes
Format settings, PS : No
Codec ID : 40
Duration : 1h 14mn
Bit rate mode : Variable
Bit rate : 62.7 Kbps
Maximum bit rate : 152 Kbps
Channel(s) : 2 channels
Channel positions : L R
Sampling rate : 48.0 KHz
Resolution : 16 bits
Stream size : 33.3 MiB (11%)
Encoded date : UTC 2010-10-08 20:57:30
Tagged date : UTC 2010-10-08 20:57:33

After a specially written script template, the British director made to the realization of Cherry Tree Lane for Steel Mill Pictures.[3] The director over his film: "Cherry Tree Lane is exciting, harrowing and sometimes even disturbing. In creative terms, the project will open up the same London to Brighton, through the social component, but also the broad masses."[4] Paul Andrew Williams began the shooting of the psychological thriller on 16 July 2009 in North London.[5] Ken Marshall produced the film for UK Film Council and Steel Mill Pictures.
 
http://www.imdb.com/title/tt1468829/

screen shots
 
http://img543.imageshack.us/img543/396/ctlh264vicemp4snapshot0.jpg 
http://img337.imageshack.us/img337/396/ctlh264vicemp4snapshot0.jpg 
http://img177.imageshack.us/img177/396/ctlh264vicemp4snapshot0.jpg 
http://img412.imageshack.us/img412/396/ctlh264vicemp4snapshot0.jpg
 
http://img685.imageshack.us/img685/894/ctlh264vicemp4thumbs201.jpg